<?xml version="1.0" encoding="UTF-8"?>
<svg xmlns="http://www.w3.org/2000/svg" viewBox="0 0 64 64" role="img" aria-label="jellyclaw">
<defs>
<linearGradient id="d" x1="0" y1="0" x2="0" y2="1">
<stop offset="0" stop-color="#3BA7FF"/><stop offset="1" stop-color="#9E7BFF"/>
</linearGradient>
</defs>
<rect width="64" height="64" rx="14" fill="#0A1020"/>
<path d="M12 38c0-12 9-22 20-22s20 10 20 22v4c-3-2-6-1-7 2-1-3-4-4-6-2-2-2-5-2-7 0-2-2-5-2-7 0-2-2-5-2-7 0-2-2-5-2-6 2-1-3-3-4-7-2Z" fill="url(#d)"/>
<path d="M20 50c0 5-2 8-3 12M30 52c0 6-2 10-3 14M40 52c0 6 2 10 4 14M50 50c0 5 2 8 4 12" stroke="#9E7BFF" stroke-width="2.4" stroke-linecap="round" fill="none" opacity=".8"/>
<circle cx="24" cy="32" r="3" fill="#FFB547"/>
<circle cx="40" cy="32" r="3" fill="#FF6FB5"/>
</svg>
